# xmcd
# 
# Track frame offsets:
#     150
#     22944
#     43662
#     89445
#     108521
#     121625
#     132097
#     158126
#     212675
#     247003
# 
# Disc length: 3480
# 
# Revision: 1
# Processed by: cddbd v1.5.2PL0 Copyright (c) Steve Scherf et al.
# Submitted via: BonkEnc v1.0.8
# 
DISCID=7c0d960a
DTITLE=Tony Malaby - Paloma Recio
DYEAR=2008
DGENRE=Contemporary Jazz
TTITLE0=Obambo
TTITLE1=Lucedes
TTITLE2=Alechinsky
TTITLE3=Hidden
TTITLE4=Boludos
TTITLE5=Puppets
TTITLE6=Sonoita
TTITLE7=Loud Dove
TTITLE8=Third Mystery
TTITLE9=Musica Callada
EXTD=YEAR: 2009
EXTT0=
EXTT1=
EXTT2=
EXTT3=
EXTT4=
EXTT5=
EXTT6=
EXTT7=
EXTT8=
EXTT9=
PLAYORDER=
